<mxfile host="app.diagrams.net" modified="2022-05-25T10:47:35.932Z" agent="5.0 (Macintosh; Intel Mac OS X 10_15_7) AppleWebKit/537.36 (KHTML, like Gecko) Chrome/101.0.4951.64 Safari/537.36" etag="xKZZ2YY7937FhfnMuND1" version="18.1.2" type="github">
  <diagram id="6a731a19-8d31-9384-78a2-239565b7b9f0" name="Page-1">
    <mxGraphModel dx="5922" dy="2440" grid="1" gridSize="10" guides="1" tooltips="1" connect="1" arrows="1" fold="1" page="1" pageScale="1" pageWidth="1169" pageHeight="827" background="none" math="0" shadow="0">
      <root>
        <mxCell id="0" />
        <mxCell id="1" parent="0" />
        <mxCell id="wnDfDfy4YYvwJ1oI1Ww3-132" value="" style="endArrow=none;dashed=1;html=1;rounded=0;exitX=1;exitY=0.5;exitDx=0;exitDy=0;entryX=0;entryY=0.5;entryDx=0;entryDy=0;strokeWidth=2;" edge="1" parent="1" source="wnDfDfy4YYvwJ1oI1Ww3-124" target="wnDfDfy4YYvwJ1oI1Ww3-121">
          <mxGeometry width="50" height="50" relative="1" as="geometry">
            <mxPoint x="487.5" y="929.9999999999998" as="sourcePoint" />
            <mxPoint x="827.5" y="559.9999999999998" as="targetPoint" />
          </mxGeometry>
        </mxCell>
        <mxCell id="wnDfDfy4YYvwJ1oI1Ww3-105" value="" style="endArrow=none;dashed=1;html=1;rounded=0;exitX=1;exitY=0.5;exitDx=0;exitDy=0;entryX=0;entryY=0.5;entryDx=0;entryDy=0;strokeWidth=2;" edge="1" parent="1" source="wnDfDfy4YYvwJ1oI1Ww3-103" target="wnDfDfy4YYvwJ1oI1Ww3-68">
          <mxGeometry width="50" height="50" relative="1" as="geometry">
            <mxPoint x="332.5" y="719.9999999999998" as="sourcePoint" />
            <mxPoint x="837.5" y="372" as="targetPoint" />
          </mxGeometry>
        </mxCell>
        <mxCell id="wnDfDfy4YYvwJ1oI1Ww3-90" value="" style="endArrow=none;dashed=1;html=1;dashPattern=1 3;strokeWidth=3;rounded=1;fontSize=15;strokeColor=#999999;startArrow=none;" edge="1" parent="1">
          <mxGeometry width="50" height="50" relative="1" as="geometry">
            <mxPoint x="740" y="3290" as="sourcePoint" />
            <mxPoint x="740" y="30" as="targetPoint" />
          </mxGeometry>
        </mxCell>
        <mxCell id="wnDfDfy4YYvwJ1oI1Ww3-89" value="" style="endArrow=none;dashed=1;html=1;dashPattern=1 3;strokeWidth=3;rounded=1;fontSize=15;strokeColor=#9E9E9E;startArrow=none;" edge="1" parent="1">
          <mxGeometry width="50" height="50" relative="1" as="geometry">
            <mxPoint x="420" y="3290" as="sourcePoint" />
            <mxPoint x="420" y="30" as="targetPoint" />
          </mxGeometry>
        </mxCell>
        <mxCell id="wnDfDfy4YYvwJ1oI1Ww3-62" value="" style="edgeStyle=orthogonalEdgeStyle;rounded=0;orthogonalLoop=1;jettySize=auto;html=1;strokeWidth=2;" edge="1" parent="1" source="wnDfDfy4YYvwJ1oI1Ww3-58" target="wnDfDfy4YYvwJ1oI1Ww3-80">
          <mxGeometry relative="1" as="geometry" />
        </mxCell>
        <mxCell id="wnDfDfy4YYvwJ1oI1Ww3-58" value="Mother Start from Home(Town)" style="rounded=1;whiteSpace=wrap;html=1;absoluteArcSize=1;arcSize=14;strokeWidth=2;fillColor=#dae8fc;strokeColor=#6c8ebf;" vertex="1" parent="1">
          <mxGeometry x="130" y="187" width="210" height="40" as="geometry" />
        </mxCell>
        <mxCell id="wnDfDfy4YYvwJ1oI1Ww3-85" style="edgeStyle=orthogonalEdgeStyle;rounded=1;orthogonalLoop=1;jettySize=auto;html=1;entryX=0.5;entryY=0;entryDx=0;entryDy=0;fontSize=15;strokeWidth=2;" edge="1" parent="1" source="wnDfDfy4YYvwJ1oI1Ww3-59" target="wnDfDfy4YYvwJ1oI1Ww3-83">
          <mxGeometry relative="1" as="geometry" />
        </mxCell>
        <mxCell id="wnDfDfy4YYvwJ1oI1Ww3-59" value="Son Start from School" style="rounded=1;whiteSpace=wrap;html=1;absoluteArcSize=1;arcSize=14;strokeWidth=2;fillColor=#f5f5f5;fontColor=#333333;strokeColor=#666666;" vertex="1" parent="1">
          <mxGeometry x="470" y="117" width="210" height="40" as="geometry" />
        </mxCell>
        <mxCell id="wnDfDfy4YYvwJ1oI1Ww3-69" style="edgeStyle=orthogonalEdgeStyle;rounded=0;orthogonalLoop=1;jettySize=auto;html=1;strokeWidth=2;" edge="1" parent="1" source="wnDfDfy4YYvwJ1oI1Ww3-60" target="wnDfDfy4YYvwJ1oI1Ww3-68">
          <mxGeometry relative="1" as="geometry" />
        </mxCell>
        <mxCell id="wnDfDfy4YYvwJ1oI1Ww3-60" value="Father opening" style="rounded=1;whiteSpace=wrap;html=1;absoluteArcSize=1;arcSize=14;strokeWidth=2;fillColor=#0050ef;strokeColor=#001DBC;fontColor=#ffffff;" vertex="1" parent="1">
          <mxGeometry x="810" y="117" width="210" height="40" as="geometry" />
        </mxCell>
        <mxCell id="wnDfDfy4YYvwJ1oI1Ww3-140" style="edgeStyle=orthogonalEdgeStyle;rounded=1;orthogonalLoop=1;jettySize=auto;html=1;entryX=0.5;entryY=0;entryDx=0;entryDy=0;fontSize=23;fontColor=#000000;strokeColor=#000000;strokeWidth=2;" edge="1" parent="1" source="wnDfDfy4YYvwJ1oI1Ww3-61" target="wnDfDfy4YYvwJ1oI1Ww3-139">
          <mxGeometry relative="1" as="geometry" />
        </mxCell>
        <mxCell id="wnDfDfy4YYvwJ1oI1Ww3-61" value="Nuclear Power Station Clean" style="whiteSpace=wrap;html=1;rounded=1;arcSize=14;strokeWidth=2;fillColor=#ffe6cc;strokeColor=#d79b00;" vertex="1" parent="1">
          <mxGeometry x="320" y="1000" width="175" height="40" as="geometry" />
        </mxCell>
        <mxCell id="wnDfDfy4YYvwJ1oI1Ww3-119" style="edgeStyle=orthogonalEdgeStyle;rounded=1;orthogonalLoop=1;jettySize=auto;html=1;entryX=0.5;entryY=0;entryDx=0;entryDy=0;fontSize=23;fontColor=#000000;strokeColor=#000000;strokeWidth=2;" edge="1" parent="1" source="wnDfDfy4YYvwJ1oI1Ww3-68" target="wnDfDfy4YYvwJ1oI1Ww3-118">
          <mxGeometry relative="1" as="geometry" />
        </mxCell>
        <mxCell id="wnDfDfy4YYvwJ1oI1Ww3-68" value="Mission 0" style="whiteSpace=wrap;html=1;rounded=1;arcSize=14;strokeWidth=2;fillColor=#fff2cc;strokeColor=#d6b656;" vertex="1" parent="1">
          <mxGeometry x="827.5" y="227" width="175" height="43" as="geometry" />
        </mxCell>
        <mxCell id="wnDfDfy4YYvwJ1oI1Ww3-70" value="" style="endArrow=none;dashed=1;html=1;rounded=0;exitX=1;exitY=0.5;exitDx=0;exitDy=0;entryX=0;entryY=0.5;entryDx=0;entryDy=0;strokeWidth=2;" edge="1" parent="1" source="wnDfDfy4YYvwJ1oI1Ww3-61" target="wnDfDfy4YYvwJ1oI1Ww3-102">
          <mxGeometry width="50" height="50" relative="1" as="geometry">
            <mxPoint x="560" y="427" as="sourcePoint" />
            <mxPoint x="610" y="377" as="targetPoint" />
          </mxGeometry>
        </mxCell>
        <mxCell id="wnDfDfy4YYvwJ1oI1Ww3-71" value="" style="rounded=1;whiteSpace=wrap;html=1;fillColor=#dae8fc;strokeColor=#6c8ebf;" vertex="1" parent="1">
          <mxGeometry x="-138" y="117" width="120" height="20" as="geometry" />
        </mxCell>
        <mxCell id="wnDfDfy4YYvwJ1oI1Ww3-72" value="" style="rounded=1;whiteSpace=wrap;html=1;fillColor=#d5e8d4;strokeColor=#82b366;" vertex="1" parent="1">
          <mxGeometry x="-138" y="147" width="120" height="20" as="geometry" />
        </mxCell>
        <mxCell id="wnDfDfy4YYvwJ1oI1Ww3-73" value="" style="rounded=1;whiteSpace=wrap;html=1;fillColor=#fff2cc;strokeColor=#d6b656;" vertex="1" parent="1">
          <mxGeometry x="-138" y="177" width="120" height="20" as="geometry" />
        </mxCell>
        <mxCell id="wnDfDfy4YYvwJ1oI1Ww3-74" value="" style="rounded=1;whiteSpace=wrap;html=1;fillColor=#ffe6cc;strokeColor=#d79b00;" vertex="1" parent="1">
          <mxGeometry x="-138" y="207" width="120" height="20" as="geometry" />
        </mxCell>
        <mxCell id="wnDfDfy4YYvwJ1oI1Ww3-75" value="" style="rounded=1;whiteSpace=wrap;html=1;fillColor=#f8cecc;strokeColor=#b85450;" vertex="1" parent="1">
          <mxGeometry x="-138" y="237" width="120" height="20" as="geometry" />
        </mxCell>
        <mxCell id="wnDfDfy4YYvwJ1oI1Ww3-76" value="" style="rounded=1;whiteSpace=wrap;html=1;fillColor=#d0cee2;strokeColor=#56517e;" vertex="1" parent="1">
          <mxGeometry x="-138" y="267" width="120" height="20" as="geometry" />
        </mxCell>
        <mxCell id="wnDfDfy4YYvwJ1oI1Ww3-78" value="" style="endArrow=classic;html=1;rounded=1;strokeWidth=2;" edge="1" parent="1">
          <mxGeometry width="50" height="50" relative="1" as="geometry">
            <mxPoint x="-158" y="117" as="sourcePoint" />
            <mxPoint x="-158" y="287" as="targetPoint" />
          </mxGeometry>
        </mxCell>
        <mxCell id="wnDfDfy4YYvwJ1oI1Ww3-79" value="Difficulty Low to High" style="text;html=1;strokeColor=none;fillColor=none;align=center;verticalAlign=middle;whiteSpace=wrap;rounded=0;rotation=90;fontSize=15;" vertex="1" parent="1">
          <mxGeometry x="-248" y="182" width="150" height="30" as="geometry" />
        </mxCell>
        <mxCell id="wnDfDfy4YYvwJ1oI1Ww3-82" style="edgeStyle=orthogonalEdgeStyle;rounded=1;orthogonalLoop=1;jettySize=auto;html=1;entryX=0.5;entryY=0;entryDx=0;entryDy=0;fontSize=15;strokeWidth=2;" edge="1" parent="1" source="wnDfDfy4YYvwJ1oI1Ww3-80" target="wnDfDfy4YYvwJ1oI1Ww3-81">
          <mxGeometry relative="1" as="geometry" />
        </mxCell>
        <mxCell id="wnDfDfy4YYvwJ1oI1Ww3-80" value="Rural Area" style="rounded=1;whiteSpace=wrap;html=1;absoluteArcSize=1;arcSize=14;strokeWidth=2;fillColor=#dae8fc;strokeColor=#6c8ebf;" vertex="1" parent="1">
          <mxGeometry x="130" y="257" width="210" height="40" as="geometry" />
        </mxCell>
        <mxCell id="wnDfDfy4YYvwJ1oI1Ww3-87" style="edgeStyle=orthogonalEdgeStyle;rounded=1;orthogonalLoop=1;jettySize=auto;html=1;fontSize=15;strokeWidth=2;exitX=0.5;exitY=1;exitDx=0;exitDy=0;" edge="1" parent="1" source="wnDfDfy4YYvwJ1oI1Ww3-81" target="wnDfDfy4YYvwJ1oI1Ww3-86">
          <mxGeometry relative="1" as="geometry" />
        </mxCell>
        <mxCell id="wnDfDfy4YYvwJ1oI1Ww3-81" value="School After" style="whiteSpace=wrap;html=1;rounded=1;arcSize=14;strokeWidth=2;fillColor=#d5e8d4;strokeColor=#82b366;" vertex="1" parent="1">
          <mxGeometry x="147.5" y="321" width="175" height="40" as="geometry" />
        </mxCell>
        <mxCell id="wnDfDfy4YYvwJ1oI1Ww3-88" style="edgeStyle=orthogonalEdgeStyle;rounded=1;orthogonalLoop=1;jettySize=auto;html=1;fontSize=15;strokeWidth=2;" edge="1" parent="1" source="wnDfDfy4YYvwJ1oI1Ww3-83" target="wnDfDfy4YYvwJ1oI1Ww3-86">
          <mxGeometry relative="1" as="geometry" />
        </mxCell>
        <mxCell id="wnDfDfy4YYvwJ1oI1Ww3-83" value="School After" style="whiteSpace=wrap;html=1;rounded=1;arcSize=14;strokeWidth=2;fillColor=#f5f5f5;fontColor=#333333;strokeColor=#666666;" vertex="1" parent="1">
          <mxGeometry x="487.5" y="197" width="175" height="40" as="geometry" />
        </mxCell>
        <mxCell id="wnDfDfy4YYvwJ1oI1Ww3-84" value="" style="endArrow=none;dashed=1;html=1;rounded=0;entryX=0;entryY=0.5;entryDx=0;entryDy=0;strokeWidth=2;exitX=1;exitY=0.5;exitDx=0;exitDy=0;" edge="1" parent="1" source="wnDfDfy4YYvwJ1oI1Ww3-81" target="wnDfDfy4YYvwJ1oI1Ww3-83">
          <mxGeometry width="50" height="50" relative="1" as="geometry">
            <mxPoint x="332.5" y="577" as="sourcePoint" />
            <mxPoint x="837.5" y="267" as="targetPoint" />
          </mxGeometry>
        </mxCell>
        <mxCell id="wnDfDfy4YYvwJ1oI1Ww3-101" style="edgeStyle=orthogonalEdgeStyle;rounded=1;orthogonalLoop=1;jettySize=auto;html=1;entryX=0.5;entryY=0;entryDx=0;entryDy=0;fontSize=23;fontColor=#000000;strokeColor=#000000;strokeWidth=2;" edge="1" parent="1" source="wnDfDfy4YYvwJ1oI1Ww3-86" target="wnDfDfy4YYvwJ1oI1Ww3-99">
          <mxGeometry relative="1" as="geometry" />
        </mxCell>
        <mxCell id="wnDfDfy4YYvwJ1oI1Ww3-104" style="edgeStyle=orthogonalEdgeStyle;rounded=1;orthogonalLoop=1;jettySize=auto;html=1;fontSize=23;fontColor=#000000;strokeColor=#000000;strokeWidth=2;dashed=1;" edge="1" parent="1" source="wnDfDfy4YYvwJ1oI1Ww3-86" target="wnDfDfy4YYvwJ1oI1Ww3-103">
          <mxGeometry relative="1" as="geometry" />
        </mxCell>
        <mxCell id="wnDfDfy4YYvwJ1oI1Ww3-86" value="Small Town" style="whiteSpace=wrap;html=1;rounded=1;arcSize=14;strokeWidth=2;fillColor=#fff2cc;strokeColor=#d6b656;" vertex="1" parent="1">
          <mxGeometry x="278.75" y="401" width="272.5" height="40" as="geometry" />
        </mxCell>
        <mxCell id="wnDfDfy4YYvwJ1oI1Ww3-91" value="&lt;b&gt;Mother Mission Line&lt;/b&gt;&lt;br&gt;&lt;font style=&quot;font-size: 13px;&quot;&gt;Hardness: Low - Midium - High&lt;br&gt;Weapon: Low - Midium&lt;br&gt;Resources: Midium&lt;/font&gt;" style="text;html=1;strokeColor=none;fillColor=none;align=center;verticalAlign=middle;whiteSpace=wrap;rounded=0;fontSize=15;fontColor=#CC0066;" vertex="1" parent="1">
          <mxGeometry x="130" y="10" width="210" height="80" as="geometry" />
        </mxCell>
        <mxCell id="wnDfDfy4YYvwJ1oI1Ww3-92" value="&lt;b&gt;Son Mission Line&lt;/b&gt;&lt;br&gt;&lt;font style=&quot;font-size: 13px;&quot;&gt;No Gameplay&lt;/font&gt;" style="text;html=1;strokeColor=none;fillColor=none;align=center;verticalAlign=middle;whiteSpace=wrap;rounded=0;fontSize=15;fontColor=#CC6600;" vertex="1" parent="1">
          <mxGeometry x="495" y="12.5" width="160" height="55" as="geometry" />
        </mxCell>
        <mxCell id="wnDfDfy4YYvwJ1oI1Ww3-93" value="&lt;b&gt;Father Mission Line&lt;br&gt;&lt;/b&gt;&lt;font style=&quot;font-size: 13px;&quot;&gt;Hardness: Midium - High - Very High - Extremely High&lt;br&gt;Weapon: High - Very High&lt;br&gt;Resources: Medium - High&lt;/font&gt;" style="text;html=1;strokeColor=none;fillColor=none;align=center;verticalAlign=middle;whiteSpace=wrap;rounded=0;fontSize=15;fontColor=#006600;" vertex="1" parent="1">
          <mxGeometry x="750" y="30" width="395" height="30" as="geometry" />
        </mxCell>
        <mxCell id="wnDfDfy4YYvwJ1oI1Ww3-96" value="" style="rounded=1;whiteSpace=wrap;html=1;fillColor=#0050ef;strokeColor=#001DBC;fontColor=#ffffff;" vertex="1" parent="1">
          <mxGeometry x="-138" y="317" width="120" height="20" as="geometry" />
        </mxCell>
        <mxCell id="wnDfDfy4YYvwJ1oI1Ww3-97" value="Narrative" style="text;html=1;strokeColor=none;fillColor=none;align=center;verticalAlign=middle;whiteSpace=wrap;rounded=0;fontSize=15;fontColor=#000000;fontStyle=1" vertex="1" parent="1">
          <mxGeometry x="-206" y="312" width="60" height="30" as="geometry" />
        </mxCell>
        <mxCell id="wnDfDfy4YYvwJ1oI1Ww3-98" value="Main Mission Line" style="text;html=1;strokeColor=none;fillColor=none;align=right;verticalAlign=middle;whiteSpace=wrap;rounded=0;fontSize=23;fontColor=#000000;fontStyle=1" vertex="1" parent="1">
          <mxGeometry x="-150" y="10" width="132" height="100" as="geometry" />
        </mxCell>
        <mxCell id="wnDfDfy4YYvwJ1oI1Ww3-110" style="edgeStyle=orthogonalEdgeStyle;rounded=1;orthogonalLoop=1;jettySize=auto;html=1;entryX=0.5;entryY=0;entryDx=0;entryDy=0;fontSize=23;fontColor=#000000;strokeColor=#000000;strokeWidth=2;" edge="1" parent="1" source="wnDfDfy4YYvwJ1oI1Ww3-99" target="wnDfDfy4YYvwJ1oI1Ww3-109">
          <mxGeometry relative="1" as="geometry" />
        </mxCell>
        <mxCell id="wnDfDfy4YYvwJ1oI1Ww3-99" value="Mother Son Union&lt;br&gt;&amp;nbsp;and Family Call" style="rounded=1;whiteSpace=wrap;html=1;fillColor=#0050ef;strokeColor=#001DBC;fontColor=#ffffff;" vertex="1" parent="1">
          <mxGeometry x="280" y="490" width="270" height="40" as="geometry" />
        </mxCell>
        <mxCell id="wnDfDfy4YYvwJ1oI1Ww3-128" style="edgeStyle=orthogonalEdgeStyle;rounded=1;orthogonalLoop=1;jettySize=auto;html=1;entryX=0.5;entryY=0;entryDx=0;entryDy=0;fontSize=23;fontColor=#000000;strokeColor=#000000;strokeWidth=2;" edge="1" parent="1" source="wnDfDfy4YYvwJ1oI1Ww3-102" target="wnDfDfy4YYvwJ1oI1Ww3-121">
          <mxGeometry relative="1" as="geometry" />
        </mxCell>
        <mxCell id="wnDfDfy4YYvwJ1oI1Ww3-102" value="Nuclear Power Station Dirty" style="whiteSpace=wrap;html=1;rounded=1;arcSize=14;strokeWidth=2;fillColor=#ffe6cc;strokeColor=#d79b00;" vertex="1" parent="1">
          <mxGeometry x="827.5" y="470" width="175" height="40" as="geometry" />
        </mxCell>
        <mxCell id="wnDfDfy4YYvwJ1oI1Ww3-103" value="Explorable Area" style="whiteSpace=wrap;html=1;rounded=1;arcSize=14;strokeWidth=2;fillColor=#d5e8d4;strokeColor=#82b366;dashed=1;sketch=1;" vertex="1" parent="1">
          <mxGeometry x="-273" y="570" width="175" height="40" as="geometry" />
        </mxCell>
        <mxCell id="wnDfDfy4YYvwJ1oI1Ww3-108" style="edgeStyle=orthogonalEdgeStyle;rounded=1;orthogonalLoop=1;jettySize=auto;html=1;entryX=0.5;entryY=0;entryDx=0;entryDy=0;fontSize=23;fontColor=#000000;strokeColor=#000000;strokeWidth=2;" edge="1" parent="1" source="wnDfDfy4YYvwJ1oI1Ww3-107" target="wnDfDfy4YYvwJ1oI1Ww3-58">
          <mxGeometry relative="1" as="geometry" />
        </mxCell>
        <mxCell id="wnDfDfy4YYvwJ1oI1Ww3-107" value="Mother opening" style="rounded=1;whiteSpace=wrap;html=1;absoluteArcSize=1;arcSize=14;strokeWidth=2;fillColor=#0050ef;strokeColor=#001DBC;fontColor=#ffffff;" vertex="1" parent="1">
          <mxGeometry x="130" y="117" width="210" height="40" as="geometry" />
        </mxCell>
        <mxCell id="wnDfDfy4YYvwJ1oI1Ww3-112" style="edgeStyle=orthogonalEdgeStyle;rounded=1;orthogonalLoop=1;jettySize=auto;html=1;fontSize=23;fontColor=#000000;strokeColor=#000000;strokeWidth=2;" edge="1" parent="1" source="wnDfDfy4YYvwJ1oI1Ww3-109" target="wnDfDfy4YYvwJ1oI1Ww3-111">
          <mxGeometry relative="1" as="geometry" />
        </mxCell>
        <mxCell id="wnDfDfy4YYvwJ1oI1Ww3-154" style="edgeStyle=orthogonalEdgeStyle;rounded=1;orthogonalLoop=1;jettySize=auto;html=1;entryX=1;entryY=0.5;entryDx=0;entryDy=0;fontSize=21;fontColor=#000000;strokeColor=#000000;strokeWidth=1;dashed=1;" edge="1" parent="1" source="wnDfDfy4YYvwJ1oI1Ww3-109" target="wnDfDfy4YYvwJ1oI1Ww3-145">
          <mxGeometry relative="1" as="geometry">
            <Array as="points">
              <mxPoint x="139" y="600" />
              <mxPoint x="139" y="970" />
            </Array>
          </mxGeometry>
        </mxCell>
        <mxCell id="wnDfDfy4YYvwJ1oI1Ww3-109" value="Rural Area" style="whiteSpace=wrap;html=1;rounded=1;arcSize=14;strokeWidth=2;fillColor=#d5e8d4;strokeColor=#82b366;" vertex="1" parent="1">
          <mxGeometry x="327.5" y="580" width="175" height="40" as="geometry" />
        </mxCell>
        <mxCell id="wnDfDfy4YYvwJ1oI1Ww3-133" style="edgeStyle=orthogonalEdgeStyle;rounded=1;orthogonalLoop=1;jettySize=auto;html=1;entryX=0.5;entryY=0;entryDx=0;entryDy=0;fontSize=23;fontColor=#000000;strokeColor=#000000;strokeWidth=2;" edge="1" parent="1" source="wnDfDfy4YYvwJ1oI1Ww3-111" target="wnDfDfy4YYvwJ1oI1Ww3-131">
          <mxGeometry relative="1" as="geometry" />
        </mxCell>
        <mxCell id="wnDfDfy4YYvwJ1oI1Ww3-111" value="Whole Family Reunion" style="rounded=1;whiteSpace=wrap;html=1;fillColor=#0050ef;strokeColor=#001DBC;fontColor=#ffffff;" vertex="1" parent="1">
          <mxGeometry x="330" y="670" width="490" height="40" as="geometry" />
        </mxCell>
        <mxCell id="wnDfDfy4YYvwJ1oI1Ww3-127" style="edgeStyle=orthogonalEdgeStyle;rounded=1;orthogonalLoop=1;jettySize=auto;html=1;entryX=0.5;entryY=0;entryDx=0;entryDy=0;fontSize=23;fontColor=#000000;strokeColor=#000000;strokeWidth=2;" edge="1" parent="1" source="wnDfDfy4YYvwJ1oI1Ww3-115" target="wnDfDfy4YYvwJ1oI1Ww3-102">
          <mxGeometry relative="1" as="geometry" />
        </mxCell>
        <mxCell id="wnDfDfy4YYvwJ1oI1Ww3-115" value="Small Military Base" style="whiteSpace=wrap;html=1;rounded=1;arcSize=14;strokeWidth=2;fillColor=#0050ef;strokeColor=#001DBC;fontColor=#ffffff;" vertex="1" parent="1">
          <mxGeometry x="827.5" y="390" width="175" height="40" as="geometry" />
        </mxCell>
        <mxCell id="wnDfDfy4YYvwJ1oI1Ww3-120" style="edgeStyle=orthogonalEdgeStyle;rounded=1;orthogonalLoop=1;jettySize=auto;html=1;fontSize=23;fontColor=#000000;strokeColor=#000000;strokeWidth=2;" edge="1" parent="1" source="wnDfDfy4YYvwJ1oI1Ww3-118" target="wnDfDfy4YYvwJ1oI1Ww3-115">
          <mxGeometry relative="1" as="geometry" />
        </mxCell>
        <mxCell id="wnDfDfy4YYvwJ1oI1Ww3-118" value="Mission 1" style="whiteSpace=wrap;html=1;rounded=1;arcSize=14;strokeWidth=2;fillColor=#fff2cc;strokeColor=#d6b656;" vertex="1" parent="1">
          <mxGeometry x="827.5" y="312" width="175" height="40" as="geometry" />
        </mxCell>
        <mxCell id="wnDfDfy4YYvwJ1oI1Ww3-130" style="edgeStyle=orthogonalEdgeStyle;rounded=1;orthogonalLoop=1;jettySize=auto;html=1;entryX=0.5;entryY=0;entryDx=0;entryDy=0;fontSize=23;fontColor=#000000;strokeColor=#000000;strokeWidth=2;" edge="1" parent="1" source="wnDfDfy4YYvwJ1oI1Ww3-121" target="wnDfDfy4YYvwJ1oI1Ww3-111">
          <mxGeometry relative="1" as="geometry">
            <Array as="points">
              <mxPoint x="915" y="630" />
              <mxPoint x="575" y="630" />
            </Array>
          </mxGeometry>
        </mxCell>
        <mxCell id="wnDfDfy4YYvwJ1oI1Ww3-121" value="Industrial Area Dirty" style="whiteSpace=wrap;html=1;rounded=1;arcSize=14;strokeWidth=2;fillColor=#ffe6cc;strokeColor=#d79b00;" vertex="1" parent="1">
          <mxGeometry x="827.5" y="540" width="175" height="40" as="geometry" />
        </mxCell>
        <mxCell id="wnDfDfy4YYvwJ1oI1Ww3-138" style="edgeStyle=orthogonalEdgeStyle;rounded=1;orthogonalLoop=1;jettySize=auto;html=1;entryX=0.5;entryY=0;entryDx=0;entryDy=0;fontSize=23;fontColor=#000000;strokeColor=#000000;strokeWidth=2;" edge="1" parent="1" source="wnDfDfy4YYvwJ1oI1Ww3-124" target="wnDfDfy4YYvwJ1oI1Ww3-61">
          <mxGeometry relative="1" as="geometry" />
        </mxCell>
        <mxCell id="wnDfDfy4YYvwJ1oI1Ww3-124" value="Industrial Area Clean" style="whiteSpace=wrap;html=1;rounded=1;arcSize=14;strokeWidth=2;fillColor=#fff2cc;strokeColor=#d6b656;" vertex="1" parent="1">
          <mxGeometry x="320" y="910" width="175" height="40" as="geometry" />
        </mxCell>
        <mxCell id="wnDfDfy4YYvwJ1oI1Ww3-137" style="edgeStyle=orthogonalEdgeStyle;rounded=1;orthogonalLoop=1;jettySize=auto;html=1;fontSize=23;fontColor=#000000;strokeColor=#000000;strokeWidth=2;startArrow=none;" edge="1" parent="1" source="wnDfDfy4YYvwJ1oI1Ww3-143" target="wnDfDfy4YYvwJ1oI1Ww3-124">
          <mxGeometry relative="1" as="geometry" />
        </mxCell>
        <mxCell id="wnDfDfy4YYvwJ1oI1Ww3-149" style="edgeStyle=orthogonalEdgeStyle;rounded=1;orthogonalLoop=1;jettySize=auto;html=1;fontSize=23;fontColor=#000000;strokeColor=#000000;strokeWidth=2;" edge="1" parent="1" source="wnDfDfy4YYvwJ1oI1Ww3-131" target="wnDfDfy4YYvwJ1oI1Ww3-143">
          <mxGeometry relative="1" as="geometry" />
        </mxCell>
        <mxCell id="wnDfDfy4YYvwJ1oI1Ww3-131" value="Wild Area" style="whiteSpace=wrap;html=1;rounded=1;arcSize=14;strokeWidth=2;fillColor=#fff2cc;strokeColor=#d6b656;" vertex="1" parent="1">
          <mxGeometry x="330" y="750" width="490" height="40" as="geometry" />
        </mxCell>
        <mxCell id="wnDfDfy4YYvwJ1oI1Ww3-179" style="edgeStyle=orthogonalEdgeStyle;rounded=1;orthogonalLoop=1;jettySize=auto;html=1;fontSize=21;fontColor=#000000;strokeColor=#000000;strokeWidth=2;" edge="1" parent="1" source="wnDfDfy4YYvwJ1oI1Ww3-135" target="wnDfDfy4YYvwJ1oI1Ww3-141">
          <mxGeometry relative="1" as="geometry">
            <Array as="points">
              <mxPoint x="933" y="1150" />
              <mxPoint x="408" y="1150" />
            </Array>
          </mxGeometry>
        </mxCell>
        <mxCell id="wnDfDfy4YYvwJ1oI1Ww3-135" value="Base Camp&lt;br&gt;" style="whiteSpace=wrap;html=1;rounded=1;arcSize=14;strokeWidth=2;fillColor=#0050ef;strokeColor=#001DBC;fontColor=#ffffff;" vertex="1" parent="1">
          <mxGeometry x="845" y="1080" width="175" height="40" as="geometry" />
        </mxCell>
        <mxCell id="wnDfDfy4YYvwJ1oI1Ww3-155" style="edgeStyle=orthogonalEdgeStyle;rounded=1;orthogonalLoop=1;jettySize=auto;html=1;entryX=0.5;entryY=0;entryDx=0;entryDy=0;fontSize=21;fontColor=#000000;strokeColor=#000000;strokeWidth=2;" edge="1" parent="1" source="wnDfDfy4YYvwJ1oI1Ww3-139" target="wnDfDfy4YYvwJ1oI1Ww3-141">
          <mxGeometry relative="1" as="geometry" />
        </mxCell>
        <mxCell id="wnDfDfy4YYvwJ1oI1Ww3-139" value="Small Village" style="whiteSpace=wrap;html=1;rounded=1;arcSize=14;strokeWidth=2;fillColor=#dae8fc;strokeColor=#6c8ebf;" vertex="1" parent="1">
          <mxGeometry x="344.06" y="1090" width="126.88" height="40" as="geometry" />
        </mxCell>
        <mxCell id="wnDfDfy4YYvwJ1oI1Ww3-159" style="edgeStyle=orthogonalEdgeStyle;rounded=1;orthogonalLoop=1;jettySize=auto;html=1;fontSize=21;fontColor=#000000;strokeColor=#000000;strokeWidth=2;entryX=0.503;entryY=0;entryDx=0;entryDy=0;entryPerimeter=0;" edge="1" parent="1" source="wnDfDfy4YYvwJ1oI1Ww3-141" target="wnDfDfy4YYvwJ1oI1Ww3-166">
          <mxGeometry relative="1" as="geometry">
            <mxPoint x="218" y="1320" as="targetPoint" />
            <Array as="points">
              <mxPoint x="408" y="1240" />
              <mxPoint x="218" y="1240" />
            </Array>
          </mxGeometry>
        </mxCell>
        <mxCell id="wnDfDfy4YYvwJ1oI1Ww3-160" style="edgeStyle=orthogonalEdgeStyle;rounded=1;orthogonalLoop=1;jettySize=auto;html=1;fontSize=21;fontColor=#000000;strokeColor=#000000;strokeWidth=2;" edge="1" parent="1" source="wnDfDfy4YYvwJ1oI1Ww3-141" target="wnDfDfy4YYvwJ1oI1Ww3-157">
          <mxGeometry relative="1" as="geometry">
            <Array as="points">
              <mxPoint x="408" y="1240" />
              <mxPoint x="593" y="1240" />
            </Array>
          </mxGeometry>
        </mxCell>
        <mxCell id="wnDfDfy4YYvwJ1oI1Ww3-141" value="Mother Injured&lt;br&gt;Son Leave" style="whiteSpace=wrap;html=1;rounded=1;arcSize=14;strokeWidth=2;fillColor=#0050ef;strokeColor=#001DBC;fontColor=#ffffff;" vertex="1" parent="1">
          <mxGeometry x="320" y="1170" width="175" height="40" as="geometry" />
        </mxCell>
        <mxCell id="wnDfDfy4YYvwJ1oI1Ww3-145" value="Explorable Areas" style="whiteSpace=wrap;html=1;rounded=1;arcSize=14;strokeWidth=2;fillColor=#f5f5f5;strokeColor=#666666;dashed=1;sketch=1;fontSize=21;fontColor=#333333;" vertex="1" parent="1">
          <mxGeometry x="-550" y="790" width="470" height="360" as="geometry" />
        </mxCell>
        <mxCell id="wnDfDfy4YYvwJ1oI1Ww3-152" style="edgeStyle=orthogonalEdgeStyle;rounded=1;orthogonalLoop=1;jettySize=auto;html=1;fontSize=23;fontColor=#000000;strokeColor=#000000;strokeWidth=2;" edge="1" parent="1" source="wnDfDfy4YYvwJ1oI1Ww3-143" target="wnDfDfy4YYvwJ1oI1Ww3-151">
          <mxGeometry relative="1" as="geometry">
            <Array as="points">
              <mxPoint x="575" y="890" />
              <mxPoint x="933" y="890" />
            </Array>
          </mxGeometry>
        </mxCell>
        <mxCell id="wnDfDfy4YYvwJ1oI1Ww3-143" value="Father Leave" style="whiteSpace=wrap;html=1;rounded=1;arcSize=14;strokeWidth=2;fillColor=#0050ef;strokeColor=#001DBC;fontColor=#ffffff;" vertex="1" parent="1">
          <mxGeometry x="330" y="827" width="490" height="40" as="geometry" />
        </mxCell>
        <mxCell id="wnDfDfy4YYvwJ1oI1Ww3-153" style="edgeStyle=orthogonalEdgeStyle;rounded=1;orthogonalLoop=1;jettySize=auto;html=1;fontSize=23;fontColor=#000000;strokeColor=#000000;strokeWidth=2;" edge="1" parent="1" source="wnDfDfy4YYvwJ1oI1Ww3-151" target="wnDfDfy4YYvwJ1oI1Ww3-135">
          <mxGeometry relative="1" as="geometry" />
        </mxCell>
        <mxCell id="wnDfDfy4YYvwJ1oI1Ww3-156" style="edgeStyle=orthogonalEdgeStyle;rounded=1;orthogonalLoop=1;jettySize=auto;html=1;dashed=1;fontSize=21;fontColor=#000000;strokeColor=#000000;strokeWidth=1;" edge="1" parent="1" source="wnDfDfy4YYvwJ1oI1Ww3-151" target="wnDfDfy4YYvwJ1oI1Ww3-145">
          <mxGeometry relative="1" as="geometry" />
        </mxCell>
        <mxCell id="wnDfDfy4YYvwJ1oI1Ww3-151" value="Wild Area" style="whiteSpace=wrap;html=1;rounded=1;arcSize=14;strokeWidth=2;fillColor=#f8cecc;strokeColor=#b85450;" vertex="1" parent="1">
          <mxGeometry x="845" y="950" width="175" height="40" as="geometry" />
        </mxCell>
        <mxCell id="wnDfDfy4YYvwJ1oI1Ww3-172" style="edgeStyle=orthogonalEdgeStyle;rounded=1;orthogonalLoop=1;jettySize=auto;html=1;entryX=0.5;entryY=0;entryDx=0;entryDy=0;fontSize=21;fontColor=#000000;strokeColor=#000000;strokeWidth=2;" edge="1" parent="1" source="wnDfDfy4YYvwJ1oI1Ww3-157" target="wnDfDfy4YYvwJ1oI1Ww3-170">
          <mxGeometry relative="1" as="geometry">
            <Array as="points">
              <mxPoint x="590" y="1510" />
              <mxPoint x="415" y="1510" />
            </Array>
          </mxGeometry>
        </mxCell>
        <mxCell id="wnDfDfy4YYvwJ1oI1Ww3-157" value="Son Trip" style="whiteSpace=wrap;html=1;rounded=1;arcSize=14;strokeWidth=2;fillColor=#f5f5f5;fontColor=#333333;strokeColor=#666666;" vertex="1" parent="1">
          <mxGeometry x="502.5" y="1360" width="175" height="40" as="geometry" />
        </mxCell>
        <mxCell id="wnDfDfy4YYvwJ1oI1Ww3-163" style="edgeStyle=orthogonalEdgeStyle;rounded=1;orthogonalLoop=1;jettySize=auto;html=1;entryX=0.5;entryY=1;entryDx=0;entryDy=0;fontSize=21;fontColor=#000000;strokeColor=#000000;strokeWidth=1;dashed=1;" edge="1" parent="1" target="wnDfDfy4YYvwJ1oI1Ww3-145">
          <mxGeometry relative="1" as="geometry">
            <mxPoint x="130" y="1330" as="sourcePoint" />
          </mxGeometry>
        </mxCell>
        <mxCell id="wnDfDfy4YYvwJ1oI1Ww3-168" value="" style="edgeStyle=orthogonalEdgeStyle;rounded=1;orthogonalLoop=1;jettySize=auto;html=1;fontSize=21;fontColor=#000000;strokeColor=#000000;strokeWidth=2;" edge="1" parent="1" source="wnDfDfy4YYvwJ1oI1Ww3-166" target="wnDfDfy4YYvwJ1oI1Ww3-167">
          <mxGeometry relative="1" as="geometry" />
        </mxCell>
        <mxCell id="wnDfDfy4YYvwJ1oI1Ww3-166" value="Town" style="whiteSpace=wrap;html=1;rounded=1;arcSize=14;strokeWidth=2;fillColor=#fff2cc;strokeColor=#d6b656;" vertex="1" parent="1">
          <mxGeometry x="130" y="1310" width="175" height="40" as="geometry" />
        </mxCell>
        <mxCell id="wnDfDfy4YYvwJ1oI1Ww3-171" style="edgeStyle=orthogonalEdgeStyle;rounded=1;orthogonalLoop=1;jettySize=auto;html=1;fontSize=21;fontColor=#000000;strokeColor=#000000;strokeWidth=2;" edge="1" parent="1" source="wnDfDfy4YYvwJ1oI1Ww3-167" target="wnDfDfy4YYvwJ1oI1Ww3-170">
          <mxGeometry relative="1" as="geometry">
            <Array as="points">
              <mxPoint x="218" y="1510" />
              <mxPoint x="415" y="1510" />
            </Array>
          </mxGeometry>
        </mxCell>
        <mxCell id="wnDfDfy4YYvwJ1oI1Ww3-167" value="Urban Side" style="whiteSpace=wrap;html=1;rounded=1;arcSize=14;strokeWidth=2;fillColor=#ffe6cc;strokeColor=#d79b00;" vertex="1" parent="1">
          <mxGeometry x="130" y="1420" width="175" height="40" as="geometry" />
        </mxCell>
        <mxCell id="wnDfDfy4YYvwJ1oI1Ww3-174" value="" style="edgeStyle=orthogonalEdgeStyle;rounded=1;orthogonalLoop=1;jettySize=auto;html=1;fontSize=21;fontColor=#000000;strokeColor=#000000;strokeWidth=2;" edge="1" parent="1" source="wnDfDfy4YYvwJ1oI1Ww3-170" target="wnDfDfy4YYvwJ1oI1Ww3-173">
          <mxGeometry relative="1" as="geometry" />
        </mxCell>
        <mxCell id="wnDfDfy4YYvwJ1oI1Ww3-170" value="Mother Son Reunion&lt;br&gt;Son Injured" style="whiteSpace=wrap;html=1;rounded=1;arcSize=14;strokeWidth=2;fillColor=#0050ef;strokeColor=#001DBC;fontColor=#ffffff;" vertex="1" parent="1">
          <mxGeometry x="327.5" y="1570" width="175" height="40" as="geometry" />
        </mxCell>
        <mxCell id="wnDfDfy4YYvwJ1oI1Ww3-178" value="" style="edgeStyle=orthogonalEdgeStyle;rounded=1;orthogonalLoop=1;jettySize=auto;html=1;fontSize=21;fontColor=#000000;strokeColor=#000000;strokeWidth=2;" edge="1" parent="1" source="wnDfDfy4YYvwJ1oI1Ww3-173" target="wnDfDfy4YYvwJ1oI1Ww3-175">
          <mxGeometry relative="1" as="geometry" />
        </mxCell>
        <mxCell id="wnDfDfy4YYvwJ1oI1Ww3-173" value="Urban" style="whiteSpace=wrap;html=1;rounded=1;arcSize=14;strokeWidth=2;fillColor=#fad9d5;strokeColor=#ae4132;" vertex="1" parent="1">
          <mxGeometry x="327.5" y="1654" width="175" height="40" as="geometry" />
        </mxCell>
        <mxCell id="wnDfDfy4YYvwJ1oI1Ww3-181" style="edgeStyle=orthogonalEdgeStyle;rounded=1;orthogonalLoop=1;jettySize=auto;html=1;fontSize=21;fontColor=#000000;strokeColor=#000000;strokeWidth=2;" edge="1" parent="1" source="wnDfDfy4YYvwJ1oI1Ww3-175" target="wnDfDfy4YYvwJ1oI1Ww3-180">
          <mxGeometry relative="1" as="geometry">
            <Array as="points">
              <mxPoint x="415" y="1800" />
              <mxPoint x="218" y="1800" />
            </Array>
          </mxGeometry>
        </mxCell>
        <mxCell id="wnDfDfy4YYvwJ1oI1Ww3-189" style="edgeStyle=orthogonalEdgeStyle;rounded=1;orthogonalLoop=1;jettySize=auto;html=1;fontSize=21;fontColor=#000000;strokeColor=#000000;strokeWidth=2;" edge="1" parent="1" source="wnDfDfy4YYvwJ1oI1Ww3-175" target="wnDfDfy4YYvwJ1oI1Ww3-188">
          <mxGeometry relative="1" as="geometry" />
        </mxCell>
        <mxCell id="wnDfDfy4YYvwJ1oI1Ww3-175" value="Son deadly Injured and Die" style="whiteSpace=wrap;html=1;rounded=1;arcSize=14;strokeWidth=2;fillColor=#0050ef;strokeColor=#001DBC;fontColor=#ffffff;" vertex="1" parent="1">
          <mxGeometry x="327.5" y="1730" width="175" height="40" as="geometry" />
        </mxCell>
        <mxCell id="wnDfDfy4YYvwJ1oI1Ww3-183" value="" style="edgeStyle=orthogonalEdgeStyle;rounded=1;orthogonalLoop=1;jettySize=auto;html=1;fontSize=21;fontColor=#000000;strokeColor=#000000;strokeWidth=2;" edge="1" parent="1" source="wnDfDfy4YYvwJ1oI1Ww3-180" target="wnDfDfy4YYvwJ1oI1Ww3-182">
          <mxGeometry relative="1" as="geometry" />
        </mxCell>
        <mxCell id="wnDfDfy4YYvwJ1oI1Ww3-180" value="Urban" style="whiteSpace=wrap;html=1;rounded=1;arcSize=14;strokeWidth=2;fillColor=#ffe6cc;strokeColor=#d79b00;" vertex="1" parent="1">
          <mxGeometry x="130" y="1830" width="175" height="40" as="geometry" />
        </mxCell>
        <mxCell id="wnDfDfy4YYvwJ1oI1Ww3-185" style="edgeStyle=orthogonalEdgeStyle;rounded=1;orthogonalLoop=1;jettySize=auto;html=1;fontSize=21;fontColor=#000000;strokeColor=#000000;strokeWidth=2;" edge="1" parent="1" source="wnDfDfy4YYvwJ1oI1Ww3-182" target="wnDfDfy4YYvwJ1oI1Ww3-184">
          <mxGeometry relative="1" as="geometry">
            <Array as="points">
              <mxPoint x="218" y="2010" />
              <mxPoint x="565" y="2010" />
            </Array>
          </mxGeometry>
        </mxCell>
        <mxCell id="wnDfDfy4YYvwJ1oI1Ww3-182" value="Town" style="whiteSpace=wrap;html=1;rounded=1;arcSize=14;strokeWidth=2;fillColor=#ffe6cc;strokeColor=#d79b00;" vertex="1" parent="1">
          <mxGeometry x="130" y="1920" width="175" height="40" as="geometry" />
        </mxCell>
        <mxCell id="wnDfDfy4YYvwJ1oI1Ww3-191" style="edgeStyle=orthogonalEdgeStyle;rounded=1;orthogonalLoop=1;jettySize=auto;html=1;entryX=0.5;entryY=0;entryDx=0;entryDy=0;fontSize=21;fontColor=#FFFFFF;strokeColor=#000000;strokeWidth=2;" edge="1" parent="1" source="wnDfDfy4YYvwJ1oI1Ww3-184" target="wnDfDfy4YYvwJ1oI1Ww3-190">
          <mxGeometry relative="1" as="geometry">
            <Array as="points">
              <mxPoint x="567" y="2130" />
              <mxPoint x="220" y="2130" />
            </Array>
          </mxGeometry>
        </mxCell>
        <mxCell id="wnDfDfy4YYvwJ1oI1Ww3-197" style="edgeStyle=orthogonalEdgeStyle;rounded=1;orthogonalLoop=1;jettySize=auto;html=1;fontSize=21;fontColor=#FFFFFF;strokeColor=#000000;strokeWidth=2;" edge="1" parent="1" source="wnDfDfy4YYvwJ1oI1Ww3-184" target="wnDfDfy4YYvwJ1oI1Ww3-196">
          <mxGeometry relative="1" as="geometry">
            <Array as="points">
              <mxPoint x="567" y="2130" />
              <mxPoint x="928" y="2130" />
            </Array>
          </mxGeometry>
        </mxCell>
        <mxCell id="wnDfDfy4YYvwJ1oI1Ww3-184" value="Couple Reunion, fight and seperate" style="whiteSpace=wrap;html=1;rounded=1;arcSize=14;strokeWidth=2;fillColor=#0050ef;strokeColor=#001DBC;fontColor=#ffffff;" vertex="1" parent="1">
          <mxGeometry x="362" y="2067" width="410" height="40" as="geometry" />
        </mxCell>
        <mxCell id="wnDfDfy4YYvwJ1oI1Ww3-187" style="edgeStyle=orthogonalEdgeStyle;rounded=1;orthogonalLoop=1;jettySize=auto;html=1;fontSize=21;fontColor=#000000;strokeColor=#000000;strokeWidth=2;" edge="1" parent="1" source="wnDfDfy4YYvwJ1oI1Ww3-186" target="wnDfDfy4YYvwJ1oI1Ww3-184">
          <mxGeometry relative="1" as="geometry">
            <Array as="points">
              <mxPoint x="928" y="2010" />
              <mxPoint x="565" y="2010" />
            </Array>
          </mxGeometry>
        </mxCell>
        <mxCell id="wnDfDfy4YYvwJ1oI1Ww3-186" value="Wild Area" style="whiteSpace=wrap;html=1;rounded=1;arcSize=14;strokeWidth=2;fillColor=#f8cecc;strokeColor=#b85450;" vertex="1" parent="1">
          <mxGeometry x="840" y="1900" width="175" height="40" as="geometry" />
        </mxCell>
        <mxCell id="wnDfDfy4YYvwJ1oI1Ww3-188" value="End" style="rounded=1;whiteSpace=wrap;html=1;absoluteArcSize=1;arcSize=14;strokeWidth=2;fillColor=#000000;fontColor=#FFFFFF;strokeColor=#000000;" vertex="1" parent="1">
          <mxGeometry x="462" y="1830" width="210" height="40" as="geometry" />
        </mxCell>
        <mxCell id="wnDfDfy4YYvwJ1oI1Ww3-193" style="edgeStyle=orthogonalEdgeStyle;rounded=1;orthogonalLoop=1;jettySize=auto;html=1;entryX=0.5;entryY=0;entryDx=0;entryDy=0;fontSize=21;fontColor=#FFFFFF;strokeColor=#000000;strokeWidth=2;" edge="1" parent="1" source="wnDfDfy4YYvwJ1oI1Ww3-190" target="wnDfDfy4YYvwJ1oI1Ww3-192">
          <mxGeometry relative="1" as="geometry" />
        </mxCell>
        <mxCell id="wnDfDfy4YYvwJ1oI1Ww3-190" value="Wild Area" style="whiteSpace=wrap;html=1;rounded=1;arcSize=14;strokeWidth=2;fillColor=#f8cecc;strokeColor=#b85450;" vertex="1" parent="1">
          <mxGeometry x="130" y="2180" width="180" height="40" as="geometry" />
        </mxCell>
        <mxCell id="wnDfDfy4YYvwJ1oI1Ww3-195" style="edgeStyle=orthogonalEdgeStyle;rounded=1;orthogonalLoop=1;jettySize=auto;html=1;fontSize=21;fontColor=#FFFFFF;strokeColor=#000000;strokeWidth=2;" edge="1" parent="1" source="wnDfDfy4YYvwJ1oI1Ww3-192" target="wnDfDfy4YYvwJ1oI1Ww3-194">
          <mxGeometry relative="1" as="geometry">
            <Array as="points">
              <mxPoint x="220" y="2340" />
              <mxPoint x="567" y="2340" />
            </Array>
          </mxGeometry>
        </mxCell>
        <mxCell id="wnDfDfy4YYvwJ1oI1Ww3-192" value="Wild Area" style="whiteSpace=wrap;html=1;rounded=1;arcSize=14;strokeWidth=2;fillColor=#f8cecc;strokeColor=#b85450;" vertex="1" parent="1">
          <mxGeometry x="130" y="2270" width="180" height="40" as="geometry" />
        </mxCell>
        <mxCell id="wnDfDfy4YYvwJ1oI1Ww3-200" style="edgeStyle=orthogonalEdgeStyle;rounded=1;orthogonalLoop=1;jettySize=auto;html=1;fontSize=21;fontColor=#FFFFFF;strokeColor=#000000;strokeWidth=2;" edge="1" parent="1" source="wnDfDfy4YYvwJ1oI1Ww3-194" target="wnDfDfy4YYvwJ1oI1Ww3-199">
          <mxGeometry relative="1" as="geometry">
            <Array as="points">
              <mxPoint x="567" y="2450" />
              <mxPoint x="928" y="2450" />
            </Array>
          </mxGeometry>
        </mxCell>
        <mxCell id="wnDfDfy4YYvwJ1oI1Ww3-203" style="edgeStyle=orthogonalEdgeStyle;rounded=1;orthogonalLoop=1;jettySize=auto;html=1;fontSize=21;fontColor=#FFFFFF;strokeColor=#000000;strokeWidth=2;" edge="1" parent="1" source="wnDfDfy4YYvwJ1oI1Ww3-194" target="wnDfDfy4YYvwJ1oI1Ww3-202">
          <mxGeometry relative="1" as="geometry">
            <Array as="points">
              <mxPoint x="567" y="2450" />
              <mxPoint x="218" y="2450" />
            </Array>
          </mxGeometry>
        </mxCell>
        <mxCell id="wnDfDfy4YYvwJ1oI1Ww3-194" value="Forgiveness" style="whiteSpace=wrap;html=1;rounded=1;arcSize=14;strokeWidth=2;fillColor=#0050ef;strokeColor=#001DBC;fontColor=#ffffff;" vertex="1" parent="1">
          <mxGeometry x="362" y="2370" width="410" height="40" as="geometry" />
        </mxCell>
        <mxCell id="wnDfDfy4YYvwJ1oI1Ww3-198" style="edgeStyle=orthogonalEdgeStyle;rounded=1;orthogonalLoop=1;jettySize=auto;html=1;fontSize=21;fontColor=#FFFFFF;strokeColor=#000000;strokeWidth=2;" edge="1" parent="1" source="wnDfDfy4YYvwJ1oI1Ww3-196" target="wnDfDfy4YYvwJ1oI1Ww3-194">
          <mxGeometry relative="1" as="geometry">
            <Array as="points">
              <mxPoint x="928" y="2340" />
              <mxPoint x="567" y="2340" />
            </Array>
          </mxGeometry>
        </mxCell>
        <mxCell id="wnDfDfy4YYvwJ1oI1Ww3-196" value="Wild Area" style="whiteSpace=wrap;html=1;rounded=1;arcSize=14;strokeWidth=2;fillColor=#ffe6cc;strokeColor=#d79b00;" vertex="1" parent="1">
          <mxGeometry x="840" y="2230" width="175" height="40" as="geometry" />
        </mxCell>
        <mxCell id="wnDfDfy4YYvwJ1oI1Ww3-218" style="edgeStyle=orthogonalEdgeStyle;rounded=1;orthogonalLoop=1;jettySize=auto;html=1;fontSize=21;fontColor=#FFFFFF;strokeColor=#000000;strokeWidth=2;" edge="1" parent="1" source="wnDfDfy4YYvwJ1oI1Ww3-199" target="wnDfDfy4YYvwJ1oI1Ww3-217">
          <mxGeometry relative="1" as="geometry" />
        </mxCell>
        <mxCell id="wnDfDfy4YYvwJ1oI1Ww3-199" value="Final Boss Fight" style="whiteSpace=wrap;html=1;rounded=1;arcSize=14;strokeWidth=2;fillColor=#e1d5e7;strokeColor=#9673a6;" vertex="1" parent="1">
          <mxGeometry x="840" y="2520" width="175" height="40" as="geometry" />
        </mxCell>
        <mxCell id="wnDfDfy4YYvwJ1oI1Ww3-209" style="edgeStyle=orthogonalEdgeStyle;rounded=1;orthogonalLoop=1;jettySize=auto;html=1;entryX=0.5;entryY=0;entryDx=0;entryDy=0;fontSize=21;fontColor=#FFFFFF;strokeColor=#000000;strokeWidth=2;" edge="1" parent="1" source="wnDfDfy4YYvwJ1oI1Ww3-202" target="wnDfDfy4YYvwJ1oI1Ww3-208">
          <mxGeometry relative="1" as="geometry" />
        </mxCell>
        <mxCell id="wnDfDfy4YYvwJ1oI1Ww3-202" value="Wild Area" style="whiteSpace=wrap;html=1;rounded=1;arcSize=14;strokeWidth=2;fillColor=#ffe6cc;strokeColor=#d79b00;" vertex="1" parent="1">
          <mxGeometry x="130" y="2520" width="175" height="40" as="geometry" />
        </mxCell>
        <mxCell id="wnDfDfy4YYvwJ1oI1Ww3-211" style="edgeStyle=orthogonalEdgeStyle;rounded=1;orthogonalLoop=1;jettySize=auto;html=1;entryX=0.5;entryY=0;entryDx=0;entryDy=0;fontSize=21;fontColor=#FFFFFF;strokeColor=#000000;strokeWidth=2;" edge="1" parent="1" source="wnDfDfy4YYvwJ1oI1Ww3-208" target="wnDfDfy4YYvwJ1oI1Ww3-210">
          <mxGeometry relative="1" as="geometry" />
        </mxCell>
        <mxCell id="wnDfDfy4YYvwJ1oI1Ww3-208" value="Shelter" style="rounded=1;whiteSpace=wrap;html=1;absoluteArcSize=1;arcSize=14;strokeWidth=2;fillColor=#dae8fc;strokeColor=#6c8ebf;" vertex="1" parent="1">
          <mxGeometry x="142.5" y="2620" width="150" height="40" as="geometry" />
        </mxCell>
        <mxCell id="wnDfDfy4YYvwJ1oI1Ww3-213" style="edgeStyle=orthogonalEdgeStyle;rounded=1;orthogonalLoop=1;jettySize=auto;html=1;entryX=0.5;entryY=0;entryDx=0;entryDy=0;fontSize=21;fontColor=#FFFFFF;strokeColor=#000000;strokeWidth=2;" edge="1" parent="1" source="wnDfDfy4YYvwJ1oI1Ww3-210" target="wnDfDfy4YYvwJ1oI1Ww3-212">
          <mxGeometry relative="1" as="geometry" />
        </mxCell>
        <mxCell id="wnDfDfy4YYvwJ1oI1Ww3-215" style="edgeStyle=orthogonalEdgeStyle;rounded=1;orthogonalLoop=1;jettySize=auto;html=1;fontSize=21;fontColor=#FFFFFF;strokeColor=#000000;strokeWidth=2;" edge="1" parent="1" source="wnDfDfy4YYvwJ1oI1Ww3-210" target="wnDfDfy4YYvwJ1oI1Ww3-214">
          <mxGeometry relative="1" as="geometry">
            <Array as="points">
              <mxPoint x="218" y="2770" />
              <mxPoint x="580" y="2770" />
            </Array>
          </mxGeometry>
        </mxCell>
        <mxCell id="wnDfDfy4YYvwJ1oI1Ww3-210" value="Call Him" style="whiteSpace=wrap;html=1;rounded=1;arcSize=14;strokeWidth=2;fillColor=#0050ef;strokeColor=#001DBC;fontColor=#ffffff;" vertex="1" parent="1">
          <mxGeometry x="137.5" y="2710" width="160" height="40" as="geometry" />
        </mxCell>
        <mxCell id="wnDfDfy4YYvwJ1oI1Ww3-212" value="End" style="rounded=1;whiteSpace=wrap;html=1;absoluteArcSize=1;arcSize=14;strokeWidth=2;fillColor=#000000;fontColor=#FFFFFF;strokeColor=#000000;" vertex="1" parent="1">
          <mxGeometry x="137.5" y="2830" width="160" height="40" as="geometry" />
        </mxCell>
        <mxCell id="wnDfDfy4YYvwJ1oI1Ww3-224" style="edgeStyle=orthogonalEdgeStyle;rounded=1;orthogonalLoop=1;jettySize=auto;html=1;fontSize=14;fontColor=#FFFFFF;strokeColor=#000000;strokeWidth=2;" edge="1" parent="1" source="wnDfDfy4YYvwJ1oI1Ww3-214" target="wnDfDfy4YYvwJ1oI1Ww3-223">
          <mxGeometry relative="1" as="geometry" />
        </mxCell>
        <mxCell id="wnDfDfy4YYvwJ1oI1Ww3-214" value="Final Reunion" style="whiteSpace=wrap;html=1;rounded=1;arcSize=14;strokeWidth=2;fillColor=#0050ef;strokeColor=#001DBC;fontColor=#ffffff;" vertex="1" parent="1">
          <mxGeometry x="385" y="2830" width="380" height="40" as="geometry" />
        </mxCell>
        <mxCell id="wnDfDfy4YYvwJ1oI1Ww3-221" style="edgeStyle=orthogonalEdgeStyle;rounded=1;orthogonalLoop=1;jettySize=auto;html=1;entryX=0.441;entryY=0.042;entryDx=0;entryDy=0;entryPerimeter=0;fontSize=21;fontColor=#FFFFFF;strokeColor=#000000;strokeWidth=2;" edge="1" parent="1" source="wnDfDfy4YYvwJ1oI1Ww3-217" target="wnDfDfy4YYvwJ1oI1Ww3-220">
          <mxGeometry relative="1" as="geometry" />
        </mxCell>
        <mxCell id="wnDfDfy4YYvwJ1oI1Ww3-217" value="Shelter" style="rounded=1;whiteSpace=wrap;html=1;absoluteArcSize=1;arcSize=14;strokeWidth=2;fillColor=#dae8fc;strokeColor=#6c8ebf;" vertex="1" parent="1">
          <mxGeometry x="852.5" y="2620" width="150" height="40" as="geometry" />
        </mxCell>
        <mxCell id="wnDfDfy4YYvwJ1oI1Ww3-222" style="edgeStyle=orthogonalEdgeStyle;rounded=1;orthogonalLoop=1;jettySize=auto;html=1;fontSize=21;fontColor=#FFFFFF;strokeColor=#000000;strokeWidth=2;" edge="1" parent="1" source="wnDfDfy4YYvwJ1oI1Ww3-220" target="wnDfDfy4YYvwJ1oI1Ww3-214">
          <mxGeometry relative="1" as="geometry">
            <Array as="points">
              <mxPoint x="940" y="2770" />
              <mxPoint x="580" y="2770" />
            </Array>
          </mxGeometry>
        </mxCell>
        <mxCell id="wnDfDfy4YYvwJ1oI1Ww3-220" value="Find Something" style="whiteSpace=wrap;html=1;rounded=1;arcSize=14;strokeWidth=2;fillColor=#0050ef;strokeColor=#001DBC;fontColor=#ffffff;" vertex="1" parent="1">
          <mxGeometry x="840" y="2700" width="200" height="40" as="geometry" />
        </mxCell>
        <mxCell id="wnDfDfy4YYvwJ1oI1Ww3-227" style="edgeStyle=orthogonalEdgeStyle;rounded=1;orthogonalLoop=1;jettySize=auto;html=1;entryX=0;entryY=0.5;entryDx=0;entryDy=0;fontSize=14;fontColor=#FFFFFF;strokeColor=#000000;strokeWidth=2;" edge="1" parent="1" source="wnDfDfy4YYvwJ1oI1Ww3-223" target="wnDfDfy4YYvwJ1oI1Ww3-226">
          <mxGeometry relative="1" as="geometry" />
        </mxCell>
        <mxCell id="wnDfDfy4YYvwJ1oI1Ww3-229" style="edgeStyle=orthogonalEdgeStyle;rounded=1;orthogonalLoop=1;jettySize=auto;html=1;entryX=0.5;entryY=0;entryDx=0;entryDy=0;fontSize=14;fontColor=#FFFFFF;strokeColor=#000000;strokeWidth=2;" edge="1" parent="1" source="wnDfDfy4YYvwJ1oI1Ww3-223" target="wnDfDfy4YYvwJ1oI1Ww3-228">
          <mxGeometry relative="1" as="geometry" />
        </mxCell>
        <mxCell id="wnDfDfy4YYvwJ1oI1Ww3-223" value="Revenge" style="strokeWidth=2;html=1;shape=mxgraph.flowchart.decision;whiteSpace=wrap;sketch=0;fontSize=14;fontColor=#ffffff;fillColor=#d80073;strokeColor=default;" vertex="1" parent="1">
          <mxGeometry x="486.5" y="2920" width="176" height="80" as="geometry" />
        </mxCell>
        <mxCell id="wnDfDfy4YYvwJ1oI1Ww3-226" value="End" style="rounded=1;whiteSpace=wrap;html=1;absoluteArcSize=1;arcSize=14;strokeWidth=2;fillColor=#000000;fontColor=#FFFFFF;strokeColor=#000000;" vertex="1" parent="1">
          <mxGeometry x="790" y="2940" width="160" height="40" as="geometry" />
        </mxCell>
        <mxCell id="wnDfDfy4YYvwJ1oI1Ww3-231" style="edgeStyle=orthogonalEdgeStyle;rounded=1;orthogonalLoop=1;jettySize=auto;html=1;entryX=0.5;entryY=0;entryDx=0;entryDy=0;fontSize=14;fontColor=#FFFFFF;strokeColor=#000000;strokeWidth=2;" edge="1" parent="1" source="wnDfDfy4YYvwJ1oI1Ww3-228" target="wnDfDfy4YYvwJ1oI1Ww3-230">
          <mxGeometry relative="1" as="geometry" />
        </mxCell>
        <mxCell id="wnDfDfy4YYvwJ1oI1Ww3-228" value="Final Fight" style="whiteSpace=wrap;html=1;rounded=1;arcSize=14;strokeWidth=2;fillColor=#f8cecc;strokeColor=#b85450;" vertex="1" parent="1">
          <mxGeometry x="484.5" y="3040" width="180" height="40" as="geometry" />
        </mxCell>
        <mxCell id="wnDfDfy4YYvwJ1oI1Ww3-233" style="edgeStyle=orthogonalEdgeStyle;rounded=1;orthogonalLoop=1;jettySize=auto;html=1;fontSize=14;fontColor=#FFFFFF;strokeColor=#000000;strokeWidth=2;" edge="1" parent="1" source="wnDfDfy4YYvwJ1oI1Ww3-230" target="wnDfDfy4YYvwJ1oI1Ww3-232">
          <mxGeometry relative="1" as="geometry" />
        </mxCell>
        <mxCell id="wnDfDfy4YYvwJ1oI1Ww3-230" value="Final Escape" style="whiteSpace=wrap;html=1;rounded=1;arcSize=14;strokeWidth=2;fillColor=#0050ef;strokeColor=#001DBC;fontColor=#ffffff;" vertex="1" parent="1">
          <mxGeometry x="467" y="3110" width="215" height="40" as="geometry" />
        </mxCell>
        <mxCell id="wnDfDfy4YYvwJ1oI1Ww3-232" value="End" style="rounded=1;whiteSpace=wrap;html=1;absoluteArcSize=1;arcSize=14;strokeWidth=2;fillColor=#000000;fontColor=#FFFFFF;strokeColor=#000000;" vertex="1" parent="1">
          <mxGeometry x="495" y="3200" width="160" height="40" as="geometry" />
        </mxCell>
      </root>
    </mxGraphModel>
  </diagram>
</mxfile>
